HIERARCHY
ROOT HipCenter
{
    OFFSET 0.0 0.0 -0.0
    CHANNELS 6 Xposition Yposition Zposition Zrotation Xrotation Yrotation
    JOINT Spine
    {
        OFFSET 0.0 10.532708168029785 0.0
        CHANNELS 3 Zrotation Xrotation Yrotation
        JOINT ShoulderCenter
        {
            OFFSET 0.0 30.426607131958008 0.0
            CHANNELS 3 Zrotation Xrotation Yrotation
            JOINT LeftShoulder
            {
                OFFSET 19.778854370117188 0.0 0.0
                CHANNELS 3 Zrotation Xrotation Yrotation
                JOINT LeftElbow
                {
                    OFFSET 26.16524887084961 0.0 0.0
                    CHANNELS 3 Zrotation Xrotation Yrotation
                    JOINT LeftWrist
                    {
                        OFFSET 30.865833282470703 0.0 0.0
                        CHANNELS 3 Zrotation Xrotation Yrotation
                        JOINT LeftHand
                        {
                            OFFSET 3.1341753005981445 0.0 0.0
                            CHANNELS 3 Zrotation Xrotation Yrotation
                            End Site
                            {
                                OFFSET 1.2536702156066895 0.0 0.0
                            }
                        }
                    }
                }
            }
            JOINT RightShoulder
            {
                OFFSET -19.778854370117188 0.0 0.0
                CHANNELS 3 Zrotation Xrotation Yrotation
                JOINT RightElbow
                {
                    OFFSET -26.16524887084961 0.0 0.0
                    CHANNELS 3 Zrotation Xrotation Yrotation
                    JOINT RightWrist
                    {
                        OFFSET -30.865833282470703 0.0 0.0
                        CHANNELS 3 Zrotation Xrotation Yrotation
                        JOINT RightHand
                        {
                            OFFSET -3.1341753005981445 0.0 0.0
                            CHANNELS 3 Zrotation Xrotation Yrotation
                            End Site
                            {
                                OFFSET -1.2536702156066895 0.0 0.0
                            }
                        }
                    }
                }
            }
            End Site
            {
                OFFSET 0.0 12.170642852783203 0.0
            }
        }
    }
    JOINT LeftHip
    {
        OFFSET 14.163257598876953 0.0 0.0
        CHANNELS 3 Zrotation Xrotation Yrotation
        JOINT LeftKnee
        {
            OFFSET 0.0 -41.67684555053711 0.0
            CHANNELS 3 Zrotation Xrotation Yrotation
            JOINT LeftAnkle
            {
                OFFSET 0.0 -43.67390441894531 0.0
                CHANNELS 3 Zrotation Xrotation Yrotation
                JOINT LeftFoot
                {
                    OFFSET 0.0 -11.31381607055664 0.0
                    CHANNELS 3 Zrotation Xrotation Yrotation
                    End Site
                    {
                        OFFSET 0.0 0.0 4.525526523590088
                    }
                }
            }
        }
    }
    JOINT RightHip
    {
        OFFSET -14.163257598876953 0.0 0.0
        CHANNELS 3 Zrotation Xrotation Yrotation
        JOINT RightKnee
        {
            OFFSET 0.0 -41.67684555053711 0.0
            CHANNELS 3 Zrotation Xrotation Yrotation
            JOINT RightAnkle
            {
                OFFSET 0.0 -43.67390441894531 0.0
                CHANNELS 3 Zrotation Xrotation Yrotation
                JOINT RightFoot
                {
                    OFFSET 0.0 -11.31381607055664 0.0
                    CHANNELS 3 Zrotation Xrotation Yrotation
                    End Site
                    {
                        OFFSET 0.0 0.0 4.525526523590088
                    }
                }
            }
        }
    }
}
MOTION
Frames: 9
Frame Time: 0.03333333333333333
-3.799999952316284 5.400000095367432 32.79999923706055 -1.0912165172557209 1.6362762900045762 -2.9032823662673977 0.2782938429669357 -5.8858450605927075 -0.12532398313830065 -6.557002925101124e-08 5.392564190400536e-08 4.7948956923579615 93.10381013158896 1.0676408749103714 166.67954037083132 1.8879949169390878e-06 -8.39867875304023e-07 32.51175613467521 3.086105813780507e-06 45.39987781233273 24.735329619817787 -4.603107458914973e-15 2.5552379428555998e-31 -6.3611093629270335e-15 -91.77600954586643 4.162662643060592 -158.17597327856194 -1.8945608661162343e-06 9.004252329316343e-07 -40.44864566893017 -179.99999527152883 -60.591009852643424 141.54923672174044 0.0 0.0 -3.1805546814635164e-15 6.343901772138768 -2.139682250496609 -23.63806862381846 -5.43235391631178 18.265184858536724 -18.452194172759 91.36561852767792 -39.38376235842133 147.7550552435239 0.0 0.0 3.1805546814635168e-15 -18.63222322180933 0.6685580382097464 42.42870963887056 0.15118472704968902 0.026733847510507013 0.05582516654252483 -63.63565259483666 -45.017365820430776 -137.89352704906756 8.827812596100317e-32 -6.3611093629270335e-15 1.5902773407317584e-15
-3.799999952316284 5.400000095367432 32.900001525878906 -1.0912164761665406 1.0910016880695685 -2.596674364877165 0.23018414296543988 -5.5266682028411545 -0.08760294076547165 -5.041778290499173e-08 -1.6889671789775147e-07 4.594412817180784 92.98688904610788 -0.4943829334688403 166.72259163245525 -1.618218463270018e-06 4.2507025640729543e-07 32.87384658457954 3.018695915175387e-06 46.741054913183085 24.918247467793126 3.1805546814635168e-15 0.0 0.0 -91.99122091856475 4.21137116383092 -157.9841297514891 -2.929184818671893e-06 -1.9020091621693881e-06 -40.77529981286349 179.9999964105839 -58.01809615319197 142.9379979892054 -6.3611093629270335e-15 -1.5902773407317582e-15 -3.1805546814635168e-15 6.312258876804897 -1.7704454090901158 -23.25403685072833 -5.311049514205231 18.570046764141512 -18.924561056346082 91.53395205492882 -39.66312236871626 147.92507969301153 3.1805546814635168e-15 -4.4139062980501586e-32 -1.5902773407317584e-15 -18.610200761559568 1.2772955609680914 41.99621597008628 -0.05906511275051581 0.03939007912550232 0.08201045780427758 -63.93830756393583 -45.25308493778444 -138.01642812641927 -3.1805546814635168e-15 2.2069531490250793e-31 -7.951386703658792e-15
-3.799999952316284 5.400000095367432 33.0 -1.0912165494821786 0.5455503227778238 -2.6045815422855974 0.1975345428586814 -4.797625243057301 -0.10409870963231053 -5.0587624715101625e-08 2.3010418128196404e-07 4.464367497195319 92.61462664220335 -0.9938273215768297 166.67961891933388 -1.224900633011507e-06 -6.396405443412095e-07 33.928103189440385 -7.3418719622716194e-06 43.2744155232626 25.534149721646298 9.93923337957349e-16 -5.517382872562698e-32 -6.3611093629270335e-15 -91.97919492092649 4.0866521282681765 -158.24165368934803 2.2839463018961778e-06 -2.2752537593044996e-06 -41.18888472157758 -179.99999963571216 -62.264051721034555 142.68005804812367 0.0 0.0 0.0 6.14191071697395 -1.096199841730169 -23.107082765346693 -5.057192765376851 18.524253458030692 -18.76486149743214 91.54241432567707 -40.04082110760528 147.58598874811568 0.0 -1.5902773407317582e-15 0.0 -18.634350123790814 1.6550124305474039 42.76715424258818 -0.16886446636337557 -0.02120661876520437 -0.04547933951809351 -63.16854718335545 -44.77892081121762 -138.13641675861354 8.827812596100317e-32 -6.361109362927035e-15 1.5902773407317588e-15
-3.700000047683716 5.400000095367432 33.0 -1.0912164823993533 0.5455503309563006 -2.2776843602857983 0.16271643178483547 -4.614413456186275 -0.10271212100333393 -3.080766497530093e-08 5.030918072440583e-07 4.151690394404574 92.44803350715016 -2.6484903313438104 166.6170899511658 -3.0716300537047094e-06 -2.3177387565256397e-06 35.022530587256675 3.7073065570576055e-06 38.65853874535948 26.08345164447435 -1.5902773407317588e-15 -8.827812596100317e-32 6.361109362927035e-15 -92.0821020218494 3.7212456461517647 -158.14733474577983 2.511786056262682e-06 -6.71806822106327e-07 -42.12563842137101 179.99999967983342 -56.39098884427015 142.2961283228679 6.3611093629270335e-15 6.3611093629270335e-15 6.3611093629270335e-15 6.135591941117064 -1.1311572178599454 -23.71669552062697 -5.152082882056655 18.49893826512428 -18.843843405163174 91.53394708544288 -39.66310851319578 147.9250728262994 -8.827812596100317e-32 6.3611093629270335e-15 1.5902773407317584e-15 -18.491899187130674 1.6300199830739448 42.21895248616115 -0.05551457850093203 0.05254210850007341 0.1097531099992158 -63.77140123679859 -45.25555037505015 -137.92146639377785 -2.2069531490250793e-32 1.5902773407317582e-15 1.5902773407317582e-15
-3.700000047683716 5.400000095367432 33.0 -1.0912164823993533 0.5455503309563006 -2.2776843602857983 0.16271643178483547 -4.614413456186275 -0.10271212100333393 -3.080766497530093e-08 5.030918072440583e-07 4.151690394404574 92.2875409640782 -4.201917710730487 166.39348772388462 5.604198310947916e-06 -5.959288665626302e-07 36.02382186543218 -2.7232002231095752e-06 31.35392118479712 25.963777859877577 -1.5902773407317584e-15 0.0 0.0 -92.085414346419 3.7294849312062053 -158.14711810904768 -5.097621439386384e-06 4.915151858151767e-07 -42.60927880421181 -179.99999834374228 -58.66356779404043 143.55085490849612 6.3611093629270335e-15 -1.5902773407317584e-15 8.827812596100317e-32 6.147752788503537 -1.1326722966383396 -23.436332708100608 -5.134659760938481 18.30990311646302 -18.52993449276732 91.14519022064249 -40.221808815573475 147.1362555448653 0.0 1.5902773407317588e-15 0.0 -18.446170426145482 1.6251750438161978 42.711283480972654 -0.07578893133881939 -0.08994467861223412 -0.18957482778207602 -63.708250261825015 -45.00281067410626 -138.18502428539233 3.1805546814635168e-15 -6.3611093629270335e-15 1.7655625192200634e-31
-3.700000047683716 5.400000095367432 33.0 -1.0912164345429334 0.5455503247593428 -2.274818848226073 0.16985374351014695 -4.798682740560119 -0.1335882323718766 -7.127764432946841e-08 6.545689508320729e-07 4.1897079850187104 92.05984983603597 -5.110780028118116 166.1913126120739 4.507716534106058e-06 1.3729280901753064e-06 36.474785661088255 1.282723022436898e-07 33.02074483898607 26.085949740952973 2.3854160110976376e-15 1.3241718894150476e-31 6.3611093629270335e-15 -92.10158413565897 3.1870439943734747 -158.04028034469144 5.689426735960659e-07 -1.2338218518181963e-06 -42.93765660427758 -179.99999881665033 -59.72548868701396 141.74576028746495 6.3611093629270335e-15 6.3611093629270335e-15 -3.531125038440127e-31 6.135535101725469 -1.1314633964237226 -23.41893004402974 -5.116247477919274 18.315164478933603 -18.374291988048004 91.14819404488037 -40.398590425262405 146.82281219292048 -3.1805546814635164e-15 4.4139062980501586e-32 -1.5902773407317582e-15 -18.317641700764423 1.6328051566167006 42.53305489114021 -0.08984653459283695 0.09082529286661416 0.1907028107432403 -63.97351207382629 -44.859479826355106 -138.44029968969278 0.0 0.0 1.5902773407317584e-15
-3.700000047683716 5.400000095367432 33.0 -1.0912164345429334 0.5455503247593428 -2.274818848226073 -0.01549132223473418 -4.805752374989206 -0.1493254438967615 1.2367320572497542e-07 -1.3175206903262672e-07 4.029941336486715 92.02889173763195 -5.823644107364776 166.17077896913128 -1.1162684504059582e-06 -3.3801885464080234e-06 36.93254933389882 5.613430551715134e-06 31.868936265422843 25.411397911828843 3.1805546814635168e-15 -6.3611093629270335e-15 1.7655625192200634e-31 -92.03877940978887 2.7082686161147067 -158.2021341660606 3.904017239787589e-07 -1.0009016559597512e-06 -42.781017195608044 -179.99999508253634 -60.408975569362674 144.6387011738717 0.0 0.0 3.1805546814635168e-15 6.135535101725469 -1.1314633964237226 -23.41893004402974 -5.176493248644993 18.426812663350315 -18.438863573764973 91.51878001149112 -40.34761262067968 147.1071323444907 -3.1805546814635164e-15 1.5902773407317582e-15 4.4139062980501586e-32 -18.317641700764423 1.6328051566167006 42.53305489114021 -0.08984653459283695 0.09082529286661416 0.1907028107432403 -63.97351207382629 -44.859479826355106 -138.44029968969278 0.0 0.0 1.5902773407317584e-15
-3.700000047683716 5.400000095367432 33.0 -1.0912164345429334 0.5455503247593428 -2.274818848226073 -0.20817003044053606 -4.628536814964026 -0.15939655007222828 -3.054244246318178e-08 2.86139305875886e-07 3.8775657359761517 91.88712687618495 -5.328116311763766 166.55952413589677 4.315335167272659e-06 -5.913439440637272e-07 36.875781480261935 -3.032035544692097e-06 39.66873845841342 26.268575855065702 5.168401357378215e-15 2.8690390937326033e-31 6.3611093629270335e-15 -91.84298686112986 2.5640483184435343 -158.6132862755465 2.114853589224905e-06 -1.0445822209116154e-06 -42.894098084291926 179.99999960819247 -57.10910207598952 142.9953398492852 0.0 0.0 -6.3611093629270335e-15 6.135535101725469 -1.1314633964237226 -23.41893004402974 -5.176493248644993 18.426812663350315 -18.438863573764973 91.51878001149112 -40.34761262067968 147.1071323444907 -3.1805546814635164e-15 1.5902773407317582e-15 4.4139062980501586e-32 -18.317641700764423 1.6328051566167006 42.53305489114021 -0.005039924954542362 0.1899488890881247 0.39729778216726075 -64.2365998473164 -44.71653941115415 -138.69264480721517 0.0 0.0 1.5902773407317584e-15
-3.700000047683716 5.400000095367432 33.0 -1.636576832857897 0.5454267234930238 -2.2704012359234347 0.5221025483646384 -4.599751785183071 -0.1435253533771625 -3.838356196801299e-08 -1.2729357093517816e-07 3.8983027425059325 91.70930829926095 -6.304091152866575 166.75003064987223 -3.5041119287935895e-06 -2.1406165259163537e-07 36.79543953831137 -2.8957571095743028e-06 38.34355288120667 25.944853992543255 3.1805546814635164e-15 -6.3611093629270335e-15 -6.3611093629270335e-15 -91.89858390002694 2.9260043291286864 -158.88741876972625 -1.7000137319209221e-06 -1.5351226564843501e-06 -42.86387795102552 179.9999978981588 -59.12860295391625 141.45006775326038 0.0 0.0 -3.1805546814635168e-15 6.680404561106473 -1.1097646130073822 -23.42058812711174 -5.176493248644993 18.426812663350315 -18.438863573764973 91.51878001149112 -40.34761262067968 147.1071323444907 -3.1805546814635164e-15 1.5902773407317582e-15 4.4139062980501586e-32 -17.823191205160583 1.7944939075137833 42.8299843841273 -0.11974849965906958 -0.07952887016203729 -0.1667687481609492 -63.95622856335682 -44.43933660617286 -138.60429087771843 -1.7655625192200634e-31 6.361109362927033e-15 3.1805546814635164e-15
